<svg width="292" height="28" fill="none" xmlns="http://www.w3.org/2000/svg"><path d="M1.186 23h10.368v-.544l-3.328-.416c-.96-.128-1.664-.864-1.664-1.856V4.856L19.746 23h1.44V3.352c0-.96.672-1.76 1.632-1.888l2.432-.32V.6H14.882v.544l3.328.416c.96.128 1.664.864 1.664 1.856v14.272l-9.568-13.44C7.65.536 5.026.6.546.6v.544c1.952.288 3.872 1.024 4.704 2.496v16.608c0 .96-.672 1.76-1.632 1.888l-2.432.32V23zm42.103.512c6.912 0 11.936-4.736 11.936-11.712S50.2.12 43.289.12 31.32 4.824 31.32 11.8s5.056 11.712 11.968 11.712zm.032-1.12c-5.76 0-8.096-5.088-8.096-11.328 0-5.824 2.464-9.824 8.032-9.824 5.632 0 8.032 4.992 8.032 11.04 0 6.016-2.176 10.112-7.968 10.112zm28.954-10.208h.256c3.296 9.12 9.184 13.216 12.416 15.232-4.544-6.208-6.688-10.304-8.736-15.52 3.872-.704 5.888-2.528 5.888-5.664C82.1 2.2 78.58.6 71.955.6H61.94v.544l2.048.256c.96.128 1.664.864 1.664 1.856v17.088c0 .992-.704 1.728-1.664 1.856l-2.048.256V23h11.136v-.544l-2.048-.256c-.96-.128-1.664-.864-1.664-1.856v-8.16h2.912zM69.363 1.72h3.392c4.224 0 5.952 1.504 5.952 4.672 0 3.168-1.952 4.672-6.464 4.672h-2.88V1.72zM91.027 23h10.944c7.936 0 13.024-4.032 13.024-11.136C114.995 4.408 109.907.6 101.971.6H91.027v.544l2.048.256c.96.128 1.664.864 1.664 1.856v17.088c0 .992-.704 1.728-1.664 1.856l-2.048.256V23zm9.088-1.12c-.96 0-1.664-.544-1.664-1.536V1.72h3.008c4.736 0 9.664 2.016 9.664 10.144 0 7.52-4.352 10.016-9.664 10.016h-1.344zM122.021 23h11.136v-.544l-2.048-.256c-.96-.128-1.664-.864-1.664-1.856V3.256c0-.992.704-1.728 1.664-1.856l2.048-.256V.6h-11.136v.544l2.048.256c.96.128 1.664.864 1.664 1.856v17.088c0 .992-.704 1.728-1.664 1.856l-2.048.256V23zm30.133.48c3.712 0 7.68-1.408 10.272-3.84v-1.92c-2.496 2.336-5.92 3.52-9.312 3.52-4.896 0-8.896-3.424-8.896-9.44 0-6.304 2.752-10.56 7.936-10.56 4.672 0 7.136 3.936 6.56 10.848h.864l1.92-8.544c-1.824-2.08-6.784-3.424-9.344-3.424-7.232 0-11.968 4.704-11.968 11.68 0 7.008 4.8 11.68 11.968 11.68zM193.9 12.184h.256c3.296 9.12 9.184 13.216 12.416 15.232-4.544-6.208-6.688-10.304-8.736-15.52 3.872-.704 5.888-2.528 5.888-5.664C203.724 2.2 200.204.6 193.58.6h-10.016v.544l2.048.256c.96.128 1.664.864 1.664 1.856v17.088c0 .992-.704 1.728-1.664 1.856l-2.048.256V23H194.7v-.544l-2.048-.256c-.96-.128-1.664-.864-1.664-1.856v-8.16h2.912zM190.988 1.72h3.392c4.224 0 5.952 1.504 5.952 4.672 0 3.168-1.952 4.672-6.464 4.672h-2.88V1.72zm33.288 21.792c6.912 0 11.936-4.736 11.936-11.712S231.188.12 224.276.12s-11.968 4.704-11.968 11.68 5.056 11.712 11.968 11.712zm.032-1.12c-5.76 0-8.096-5.088-8.096-11.328 0-5.824 2.464-9.824 8.032-9.824 5.632 0 8.032 4.992 8.032 11.04 0 6.016-2.176 10.112-7.968 10.112zm29.26 1.088c4.8 0 8.192-2.432 8.192-5.952 0-8.832-13.024-7.936-13.024-12.352 0-2.272 2.08-3.936 5.504-3.936 3.616 0 5.312 2.4 5.664 7.68h.864l.32-7.264C259.2.824 256.8.12 254.24.12c-4.992 0-8.096 2.24-8.096 5.376 0 8.608 13.056 7.392 13.056 12.512 0 2.56-2.368 4.352-5.312 4.352-3.808 0-5.728-2.624-6.432-8.544h-.864l-.64 7.584c2.208 1.216 4.256 2.08 7.616 2.08zm16.196-.48H290.5l.96-7.552h-.544c-1.952 5.056-3.648 6.432-6.496 6.432h-5.568c-.96 0-1.664-.544-1.664-1.536v-8.16h7.392c.864 0 1.728.608 1.792 1.44l.352 3.744h.544V6.2h-.544l-.352 3.424c-.096.864-.928 1.44-1.792 1.44h-7.392V1.72h6.592c2.368 0 4.768 1.12 6.048 6.464h.544L289.732.6h-19.968v.544l2.048.256c.96.128 1.664.864 1.664 1.856v17.088c0 .992-.704 1.728-1.664 1.856l-2.048.256V23z" fill="#fff"/></svg>